<svg viewBox="0 0 1280 320" fill="none" xmlns="http://www.w3.org/2000/svg">
  <defs>
    <linearGradient id="bg" x1="0" y1="0" x2="1280" y2="320" gradientUnits="userSpaceOnUse">
      <stop offset="0%" stop-color="#0a0a0f"/>
      <stop offset="100%" stop-color="#0d1117"/>
    </linearGradient>
  </defs>

  <!-- Background -->
  <rect width="1280" height="320" rx="16" fill="url(#bg)"/>
  <rect width="1280" height="320" rx="16" stroke="#1e293b" stroke-width="1" fill="none"/>

  <!-- Shield icon -->
  <g transform="translate(180, 80)">
    <!-- Shield body -->
    <path
      d="M64 10L20 30v28c0 30.92 18.64 59.84 44 68 25.36-8.16 44-37.08 44-68V30L64 10z"
      fill="#22c55e"
      opacity="0.2"
      stroke="#4ade80"
      stroke-width="3"
      stroke-linejoin="round"
    />
    <path
      d="M64 22L32 38v20c0 23.2 13.6 44.8 32 51.2 18.4-6.4 32-28 32-51.2V38L64 22z"
      fill="#22c55e"
      opacity="0.1"
    />
    <!-- Heart -->
    <path
      d="M64 84l-4.4-4C47.4 68.8 40 61.2 40 52c0-7.6 6.4-14 14-14 4.4 0 8.4 2 11.2 5.2L64 44l-1.2-.8C66.4 40 70.4 38 74 38c7.6 0 14 6.4 14 14 0 9.2-7.4 16.8-19.6 28L64 84z"
      fill="#4ade80"
    />
  </g>

  <!-- Title text -->
  <text x="380" y="140" font-family="system-ui, -apple-system, 'Segoe UI', sans-serif" font-size="48" font-weight="700" fill="#e5e7eb">Employee Benefits</text>
  <text x="380" y="190" font-family="system-ui, -apple-system, 'Segoe UI', sans-serif" font-size="48" font-weight="700" fill="#e5e7eb">Platform</text>

  <!-- Subtitle -->
  <text x="380" y="235" font-family="system-ui, -apple-system, 'Segoe UI', sans-serif" font-size="18" fill="#6b7280">Cloud-native enrollment processing with event-driven architecture</text>
  <text x="380" y="260" font-family="system-ui, -apple-system, 'Segoe UI', sans-serif" font-size="18" fill="#6b7280">and AI-powered chatbot</text>

  <!-- Tech badges -->
  <g transform="translate(380, 275)">
    <rect x="0" y="0" width="90" height="24" rx="12" fill="#22c55e" opacity="0.15" stroke="#22c55e" stroke-width="0.5" stroke-opacity="0.3"/>
    <text x="45" y="16" font-family="system-ui, sans-serif" font-size="11" fill="#4ade80" text-anchor="middle">Spring Boot</text>

    <rect x="100" y="0" width="70" height="24" rx="12" fill="#3b82f6" opacity="0.15" stroke="#3b82f6" stroke-width="0.5" stroke-opacity="0.3"/>
    <text x="135" y="16" font-family="system-ui, sans-serif" font-size="11" fill="#60a5fa" text-anchor="middle">Next.js</text>

    <rect x="180" y="0" width="70" height="24" rx="12" fill="#a855f7" opacity="0.15" stroke="#a855f7" stroke-width="0.5" stroke-opacity="0.3"/>
    <text x="215" y="16" font-family="system-ui, sans-serif" font-size="11" fill="#c084fc" text-anchor="middle">FastAPI</text>

    <rect x="260" y="0" width="85" height="24" rx="12" fill="#0ea5e9" opacity="0.15" stroke="#0ea5e9" stroke-width="0.5" stroke-opacity="0.3"/>
    <text x="302" y="16" font-family="system-ui, sans-serif" font-size="11" fill="#38bdf8" text-anchor="middle">PostgreSQL</text>

    <rect x="355" y="0" width="65" height="24" rx="12" fill="#f97316" opacity="0.15" stroke="#f97316" stroke-width="0.5" stroke-opacity="0.3"/>
    <text x="387" y="16" font-family="system-ui, sans-serif" font-size="11" fill="#fb923c" text-anchor="middle">Ollama</text>

    <rect x="430" y="0" width="55" height="24" rx="12" fill="#eab308" opacity="0.15" stroke="#eab308" stroke-width="0.5" stroke-opacity="0.3"/>
    <text x="457" y="16" font-family="system-ui, sans-serif" font-size="11" fill="#facc15" text-anchor="middle">AWS</text>
  </g>
</svg>
