<svg viewBox="0 0 128 128" fill="none" xmlns="http://www.w3.org/2000/svg">
  <!-- Background circle -->
  <circle cx="64" cy="64" r="62" fill="#0a0a0f" stroke="#1e293b" stroke-width="2"/>

  <!-- Shield body -->
  <path
    d="M64 18L28 38v28c0 30.92 18.64 59.84 44 68 25.36-8.16 44-37.08 44-68V38L64 18z"
    fill="#22c55e"
    opacity="0.2"
    stroke="#4ade80"
    stroke-width="3"
    stroke-linejoin="round"
  />

  <!-- Inner shield highlight -->
  <path
    d="M64 30L36 44v22c0 23.2 13.6 44.8 32 51.2 18.4-6.4 32-28 32-51.2V44L64 30z"
    fill="#22c55e"
    opacity="0.1"
  />

  <!-- Heart / benefits icon -->
  <path
    d="M64 92l-4.4-4C47.4 76.8 40 69.2 40 60c0-7.6 6.4-14 14-14 4.4 0 8.4 2 11.2 5.2L64 52l-1.2-.8C66.4 48 70.4 46 74 46c7.6 0 14 6.4 14 14 0 9.2-7.4 16.8-19.6 28L64 92z"
    fill="#4ade80"
  />
</svg>
